# xmcd
#
# Track frame offsets:
#	150
#	12375
#	25725
#	39900
#	55725
#	69375
#	85350
#	99150
#	114225
#	125475
#	142125
#	156300
#
# Disc length: 2261 seconds
#
# Revision: 0
# Processed by: cddbd v1.4b42PL1 Copyright (c) Steve Scherf et al.
# Submitted via: audiograbber 1.80
#
DISCID=9608d30c
DTITLE=Oak Ridge Boys, The - American Harmony Disc 1
DYEAR=1900
DGENRE=
TTITLE0=Elvira
TTITLE1=Y'all Come Back Saloon
TTITLE2=I Wish You Could Have Turned My Head (And Left My Heart Alone)
TTITLE3=Heart Of Mine
TTITLE4=You're The One
TTITLE5=Sail Away
TTITLE6=Leaving Louisanna In The Broad Daylight
TTITLE7=Dream On
TTITLE8=Trying To Love Two Women
TTITLE9=I'll Be True To You
TTITLE10=Heart On The Line (Operator, Operator)
TTITLE11=Come On In
EXTD=
EXTT0=
EXTT1=
EXTT2=
EXTT3=
EXTT4=
EXTT5=
EXTT6=
EXTT7=
EXTT8=
EXTT9=
EXTT10=
EXTT11=
PLAYORDER=
